<svg id="Layer_1" data-name="Layer 1" xmlns="http://www.w3.org/2000/svg" viewBox="0 0 73.91 47.65"><defs><style>.cls-1{fill:#231f20;}</style></defs><title>facebook</title><path class="cls-1" d="M13.35,9.87a4.28,4.28,0,0,1,.49-2.12c.42-1,1.67-1.62,3.75-1.75h3.07V9.5H18.41a.87.87,0,0,0-.61.28.88.88,0,0,0-.29.54v2.3h3.15Q20.56,14,20.42,15l-.15,1H17.49V26H13.35V16h-2V12.62h2V9.87Z" transform="translate(-11.34 -6)"/><path class="cls-1" d="M64.05,33.65l-1.68.94H60.73a5.75,5.75,0,0,1,1.17,1.22,4.08,4.08,0,0,1,.71,2.33,3.76,3.76,0,0,1-.7,2.27,7.51,7.51,0,0,1-1.51,1.47,2.89,2.89,0,0,0-.5.54,1.21,1.21,0,0,0-.22.73,1.09,1.09,0,0,0,.21.69,3.69,3.69,0,0,0,.45.44l1,.74a9.93,9.93,0,0,1,1.52,1.52,3.6,3.6,0,0,1,.69,2.15,4.47,4.47,0,0,1-1.77,3.41,8.12,8.12,0,0,1-5.15,1.55,7.15,7.15,0,0,1-4.26-1.15A3.15,3.15,0,0,1,51,49.9a3.33,3.33,0,0,1,.43-1.62A4.18,4.18,0,0,1,53,46.7a8,8,0,0,1,2.67-1A19.4,19.4,0,0,1,58,45.49a5.3,5.3,0,0,1-.54-.77,2,2,0,0,1-.24-1,1.64,1.64,0,0,1,.08-.57c0-.15.11-.31.17-.46a8,8,0,0,1-.84,0,4.29,4.29,0,0,1-3.22-1.28,4,4,0,0,1-1.13-2.84,4.43,4.43,0,0,1,.42-1.84,4.89,4.89,0,0,1,1.26-1.67,5.87,5.87,0,0,1,2.37-1.18,9.82,9.82,0,0,1,2.33-.27h5.41ZM61.73,49.71a2.32,2.32,0,0,0-.68-1.7,13.18,13.18,0,0,0-2.17-1.76l-.3,0h-.31a9.27,9.27,0,0,0-1.06.06,8,8,0,0,0-1.69.35,4.6,4.6,0,0,0-1.36.73,2.47,2.47,0,0,0-.91,2,2.74,2.74,0,0,0,1.25,2.28,5.77,5.77,0,0,0,3.38.9,4.58,4.58,0,0,0,2.87-.8A2.49,2.49,0,0,0,61.73,49.71Zm-2.09-8.44a2.38,2.38,0,0,0,.55-1,3.38,3.38,0,0,0,.09-.89,6.64,6.64,0,0,0-.83-3.13A3,3,0,0,0,57,34.51a2.73,2.73,0,0,0-1,.25,2.23,2.23,0,0,0-.82.63,2.16,2.16,0,0,0-.46.92,3.94,3.94,0,0,0-.13,1,6.55,6.55,0,0,0,.8,3A2.87,2.87,0,0,0,57.84,42a2.61,2.61,0,0,0,1-.2A2.75,2.75,0,0,0,59.64,41.27Z" transform="translate(-11.34 -6)"/><path class="cls-1" d="M61.7,11.62A5.21,5.21,0,0,1,60.33,13l-5.21,3.64L54,17.38c-.16.11-.36.24-.58.37a2.77,2.77,0,0,1-.64.29,1.65,1.65,0,0,1-.55.1h0a1.7,1.7,0,0,1-.56-.1,2.91,2.91,0,0,1-.63-.29c-.23-.13-.42-.26-.59-.37l-1.07-.76L44.16,13a5.65,5.65,0,0,1-1.3-1.29,2.57,2.57,0,0,1-.61-1.52,2.29,2.29,0,0,1,.46-1.45A1.55,1.55,0,0,1,44,8.14H60.45a1.69,1.69,0,0,1,1.27.53,1.73,1.73,0,0,1,.53,1.27A3,3,0,0,1,61.7,11.62Zm.55,6v4.43a1.7,1.7,0,0,1-.53,1.25,1.68,1.68,0,0,1-1.25.53H44a1.79,1.79,0,0,1-1.77-1.78V13.22a5.61,5.61,0,0,0,1.13,1C46.08,16,47.92,17.3,48.93,18c.41.31.76.56,1,.73a6.07,6.07,0,0,0,1.06.54,3.18,3.18,0,0,0,1.22.27h0a3.26,3.26,0,0,0,1.22-.27,5.94,5.94,0,0,0,1-.54c.27-.17.61-.42,1-.73,1.26-.92,3.12-2.21,5.56-3.85a7.58,7.58,0,0,0,1.12-1Z" transform="translate(-11.34 -6)"/><path class="cls-1" d="M83,14.67a3.61,3.61,0,0,0,1.07.24,3.9,3.9,0,0,0,1.19,0,2.68,2.68,0,0,1-.91.64,3.59,3.59,0,0,1-1.47.28q-1.7,5.15-7.53,6.32T65.25,18.34a5.23,5.23,0,0,0,3.63,1.42,5.31,5.31,0,0,0,3.79-1.61,1.31,1.31,0,0,1-1.36-.54c-.24-.41,0-.8.74-1.16a2.52,2.52,0,0,1-1.63-.32,2.11,2.11,0,0,1-.83-.89,1.44,1.44,0,0,1,.54-.38,2.8,2.8,0,0,1,.82-.17,3.41,3.41,0,0,1-1.62-.79,2.25,2.25,0,0,1-.62-1.2c.22,0,.44-.1.67-.13a1.78,1.78,0,0,1,.56,0,3.51,3.51,0,0,1-1.38-1.23A2,2,0,0,1,68.24,10c1.17.44,2.16.85,3,1.21s1.52.72,2.14,1.06a6.87,6.87,0,0,1,1.52,1.21,17,17,0,0,1,1.27-2.77A6.16,6.16,0,0,1,78,8.69a.92.92,0,0,1-.29.59,3.22,3.22,0,0,1,.73-.49,2.83,2.83,0,0,1,.83-.25.75.75,0,0,1-.41.5,2.82,2.82,0,0,1-.64.3l1-.35c.48-.17.78-.18.91,0s-.1.38-.46.49-.61.19-.77.23a3.27,3.27,0,0,0-.47.16,3.62,3.62,0,0,1,2.64.86,4.7,4.7,0,0,1,1.6,2.46c0,.14.08.3.12.46a2.75,2.75,0,0,0,1.29.06,2.94,2.94,0,0,0,1.07-.33,2,2,0,0,1-.79.88A3.16,3.16,0,0,1,83,14.67Z" transform="translate(-11.34 -6)"/></svg>