<svg id="Layer_1" data-name="Layer 1" xmlns="http://www.w3.org/2000/svg" viewBox="0 0 32 32"><defs><style>.cls-1{fill:#231f20;}</style></defs><title>icons</title><path class="cls-1" d="M22.55,6l-1.68.94H19.23A5.75,5.75,0,0,1,20.4,8.16a4.05,4.05,0,0,1,.71,2.33,3.78,3.78,0,0,1-.7,2.27,7.21,7.21,0,0,1-1.51,1.46,3.31,3.31,0,0,0-.5.55,1.21,1.21,0,0,0-.22.73,1.09,1.09,0,0,0,.21.69,3.69,3.69,0,0,0,.45.44l1,.74a9.1,9.1,0,0,1,1.52,1.52A3.58,3.58,0,0,1,22,21a4.48,4.48,0,0,1-1.77,3.41A8.12,8.12,0,0,1,15.09,26a7.15,7.15,0,0,1-4.26-1.15,3.16,3.16,0,0,1-1.38-2.6,3.33,3.33,0,0,1,.43-1.62,4.11,4.11,0,0,1,1.58-1.58,8,8,0,0,1,2.68-.95,19.06,19.06,0,0,1,2.34-.26,5.3,5.3,0,0,1-.54-.77,2,2,0,0,1-.24-1,1.64,1.64,0,0,1,.08-.57c.05-.15.11-.31.17-.47a5.93,5.93,0,0,1-.84.06,4.33,4.33,0,0,1-3.22-1.29A4,4,0,0,1,10.76,11a4.4,4.4,0,0,1,.42-1.84,4.89,4.89,0,0,1,1.26-1.67,5.9,5.9,0,0,1,2.37-1.19A10.33,10.33,0,0,1,17.14,6h5.41ZM20.23,22.06a2.35,2.35,0,0,0-.67-1.7,13.79,13.79,0,0,0-2.18-1.76l-.3,0h-.31a9.27,9.27,0,0,0-1.06.06A8,8,0,0,0,14,19a4.37,4.37,0,0,0-1.36.73,2.47,2.47,0,0,0-.91,2A2.77,2.77,0,0,0,13,24a5.92,5.92,0,0,0,3.38.9,4.65,4.65,0,0,0,2.87-.8A2.49,2.49,0,0,0,20.23,22.06Zm-2.09-8.44a2.33,2.33,0,0,0,.55-1,3.41,3.41,0,0,0,.09-.9A6.6,6.6,0,0,0,18,8.58a2.93,2.93,0,0,0-2.47-1.72,2.54,2.54,0,0,0-1,.24,2.25,2.25,0,0,0-.82.64,2.28,2.28,0,0,0-.46.92,3.89,3.89,0,0,0-.13,1,6.55,6.55,0,0,0,.8,3,2.87,2.87,0,0,0,2.48,1.67,2.61,2.61,0,0,0,1-.2A2.75,2.75,0,0,0,18.14,13.62Z"/></svg>