<svg id="Layer_1" data-name="Layer 1" xmlns="http://www.w3.org/2000/svg" viewBox="0 0 211 82.06"><defs><style>.cls-1{fill:#231f20;}</style></defs><title>google</title><path class="cls-1" d="M108.36-36.47a4.32,4.32,0,0,1,.49-2.12q.62-1.54,3.75-1.74h3.06v3.49h-2.24a1,1,0,0,0-.62.29.84.84,0,0,0-.28.53v2.31h3.14c-.06.91-.14,1.69-.23,2.34l-.16,1H112.5v10h-4.14v-10h-2v-3.38h2v-2.76Z" transform="translate(95.33 56.06)"/><path class="cls-1" d="M22.55,6l-1.68.94H19.23A5.75,5.75,0,0,1,20.4,8.16a4.05,4.05,0,0,1,.71,2.33,3.78,3.78,0,0,1-.7,2.27,7.21,7.21,0,0,1-1.51,1.46,3.31,3.31,0,0,0-.5.55,1.21,1.21,0,0,0-.22.73,1.09,1.09,0,0,0,.21.69,3.69,3.69,0,0,0,.45.44l1,.74a9.1,9.1,0,0,1,1.52,1.52A3.58,3.58,0,0,1,22,21a4.48,4.48,0,0,1-1.77,3.41A8.12,8.12,0,0,1,15.09,26a7.15,7.15,0,0,1-4.26-1.15,3.16,3.16,0,0,1-1.38-2.6,3.33,3.33,0,0,1,.43-1.62,4.11,4.11,0,0,1,1.58-1.58,8,8,0,0,1,2.68-.95,19.06,19.06,0,0,1,2.34-.26,5.3,5.3,0,0,1-.54-.77,2,2,0,0,1-.24-1,1.64,1.64,0,0,1,.08-.57c.05-.15.11-.31.17-.47a5.93,5.93,0,0,1-.84.06,4.33,4.33,0,0,1-3.22-1.29A4,4,0,0,1,10.76,11a4.4,4.4,0,0,1,.42-1.84,4.89,4.89,0,0,1,1.26-1.67,5.9,5.9,0,0,1,2.37-1.19A10.33,10.33,0,0,1,17.14,6h5.41ZM20.23,22.06a2.35,2.35,0,0,0-.67-1.7,13.79,13.79,0,0,0-2.18-1.76l-.3,0h-.31a9.27,9.27,0,0,0-1.06.06A8,8,0,0,0,14,19a4.37,4.37,0,0,0-1.36.73,2.47,2.47,0,0,0-.91,2A2.77,2.77,0,0,0,13,24a5.92,5.92,0,0,0,3.38.9,4.65,4.65,0,0,0,2.87-.8A2.49,2.49,0,0,0,20.23,22.06Zm-2.09-8.44a2.33,2.33,0,0,0,.55-1,3.41,3.41,0,0,0,.09-.9A6.6,6.6,0,0,0,18,8.58a2.93,2.93,0,0,0-2.47-1.72,2.54,2.54,0,0,0-1,.24,2.25,2.25,0,0,0-.82.64,2.28,2.28,0,0,0-.46.92,3.89,3.89,0,0,0-.13,1,6.55,6.55,0,0,0,.8,3,2.87,2.87,0,0,0,2.48,1.67,2.61,2.61,0,0,0,1-.2A2.75,2.75,0,0,0,18.14,13.62Z" transform="translate(95.33 56.06)"/><path class="cls-1" d="M-75.88-52.58a5.25,5.25,0,0,1-1.37,1.37l-5.21,3.63-1.08.76c-.17.12-.36.24-.58.37a3.63,3.63,0,0,1-.64.3,1.91,1.91,0,0,1-.55.09h0a2,2,0,0,1-.56-.09,3.56,3.56,0,0,1-.63-.3,6.89,6.89,0,0,1-.59-.37l-1.07-.76-5.22-3.63a5.46,5.46,0,0,1-1.3-1.29A2.61,2.61,0,0,1-95.33-54a2.25,2.25,0,0,1,.46-1.45,1.56,1.56,0,0,1,1.31-.59h16.43a1.75,1.75,0,0,1,1.27.53,1.75,1.75,0,0,1,.53,1.27A3,3,0,0,1-75.88-52.58Zm.55,6v4.43a1.72,1.72,0,0,1-.53,1.25,1.72,1.72,0,0,1-1.25.53H-93.56a1.73,1.73,0,0,1-1.25-.53,1.71,1.71,0,0,1-.52-1.25V-51a5.65,5.65,0,0,0,1.13,1q4,2.73,5.55,3.85c.41.31.76.55,1,.73a7.88,7.88,0,0,0,1.06.54,3.18,3.18,0,0,0,1.22.27h0a3.26,3.26,0,0,0,1.22-.27,8.32,8.32,0,0,0,1-.54c.27-.18.61-.42,1-.73,1.26-.93,3.12-2.21,5.56-3.85a7.64,7.64,0,0,0,1.12-1Z" transform="translate(95.33 56.06)"/><path class="cls-1" d="M83,14.67a3.61,3.61,0,0,0,1.07.24,3.9,3.9,0,0,0,1.19,0,2.68,2.68,0,0,1-.91.64,3.59,3.59,0,0,1-1.47.28q-1.7,5.15-7.53,6.32T65.25,18.34a5.23,5.23,0,0,0,3.63,1.42,5.31,5.31,0,0,0,3.79-1.61,1.31,1.31,0,0,1-1.36-.54c-.24-.41,0-.8.74-1.16a2.52,2.52,0,0,1-1.63-.32,2.11,2.11,0,0,1-.83-.89,1.44,1.44,0,0,1,.54-.38,2.8,2.8,0,0,1,.82-.17,3.41,3.41,0,0,1-1.62-.79,2.25,2.25,0,0,1-.62-1.2c.22,0,.44-.1.67-.13a1.78,1.78,0,0,1,.56,0,3.51,3.51,0,0,1-1.38-1.23A2,2,0,0,1,68.24,10c1.17.44,2.16.85,3,1.21s1.52.72,2.14,1.06a6.87,6.87,0,0,1,1.52,1.21,17,17,0,0,1,1.27-2.77A6.16,6.16,0,0,1,78,8.69a.92.92,0,0,1-.29.59,3.22,3.22,0,0,1,.73-.49,2.83,2.83,0,0,1,.83-.25.75.75,0,0,1-.41.5,2.82,2.82,0,0,1-.64.3l1-.35c.48-.17.78-.18.91,0s-.1.38-.46.49-.61.19-.77.23a3.27,3.27,0,0,0-.47.16,3.62,3.62,0,0,1,2.64.86,4.7,4.7,0,0,1,1.6,2.46c0,.14.08.3.12.46a2.75,2.75,0,0,0,1.29.06,2.94,2.94,0,0,0,1.07-.33,2,2,0,0,1-.79.88A3.16,3.16,0,0,1,83,14.67Z" transform="translate(95.33 56.06)"/></svg>