<svg id="Layer_1" data-name="Layer 1" xmlns="http://www.w3.org/2000/svg" viewBox="0 0 32 32"><defs><style>.cls-1{fill:#231f20;}</style></defs><title>icons</title><path class="cls-1" d="M25.45,11.62A5.33,5.33,0,0,1,24.09,13l-5.22,3.64-1.07.76-.59.37a2.91,2.91,0,0,1-.63.29,1.75,1.75,0,0,1-.56.1h0a1.75,1.75,0,0,1-.56-.1,2.91,2.91,0,0,1-.63-.29l-.59-.37-1.07-.76L7.91,13a5.62,5.62,0,0,1-1.29-1.29A2.59,2.59,0,0,1,6,10.17a2.29,2.29,0,0,1,.46-1.45,1.56,1.56,0,0,1,1.32-.58H24.2a1.69,1.69,0,0,1,1.27.53A1.73,1.73,0,0,1,26,9.94,2.93,2.93,0,0,1,25.45,11.62Zm.55,6v4.43a1.7,1.7,0,0,1-.53,1.25,1.68,1.68,0,0,1-1.25.53H7.78a1.68,1.68,0,0,1-1.25-.53A1.7,1.7,0,0,1,6,22.08V13.22a5.9,5.9,0,0,0,1.13,1q4.05,2.74,5.55,3.85c.42.31.76.56,1,.73a5.6,5.6,0,0,0,1,.54,3.22,3.22,0,0,0,1.22.27h0a3.22,3.22,0,0,0,1.22-.27,5.6,5.6,0,0,0,1.05-.54c.27-.17.61-.42,1-.73,1.26-.92,3.12-2.21,5.57-3.85a8,8,0,0,0,1.11-1Z"/></svg>