<svg id="Layer_1" data-name="Layer 1" xmlns="http://www.w3.org/2000/svg" viewBox="0 0 211 145.82"><defs><style>.cls-1{fill:#231f20;}</style></defs><title>twitter</title><path class="cls-1" d="M108.36-36.47a4.32,4.32,0,0,1,.49-2.12q.62-1.54,3.75-1.74h3.06v3.49h-2.24a1,1,0,0,0-.62.29.84.84,0,0,0-.28.53v2.31h3.14c-.06.91-.14,1.69-.23,2.34l-.16,1H112.5v10h-4.14v-10h-2v-3.38h2v-2.76Z" transform="translate(95.33 122.91)"/><path class="cls-1" d="M-22.23-122.91l-1.68.94h-1.64a5.52,5.52,0,0,1,1.17,1.22,4,4,0,0,1,.7,2.33,3.85,3.85,0,0,1-.69,2.27,7.52,7.52,0,0,1-1.52,1.46,3.26,3.26,0,0,0-.49.55,1.22,1.22,0,0,0-.23.73,1,1,0,0,0,.22.68,2.07,2.07,0,0,0,.45.44l1,.75A8.81,8.81,0,0,1-23.46-110a3.58,3.58,0,0,1,.68,2.15,4.42,4.42,0,0,1-1.77,3.41,8.09,8.09,0,0,1-5.14,1.55,7.12,7.12,0,0,1-4.26-1.15,3.18,3.18,0,0,1-1.39-2.6,3.39,3.39,0,0,1,.43-1.62,4.11,4.11,0,0,1,1.58-1.58,7.75,7.75,0,0,1,2.68-1,22.18,22.18,0,0,1,2.34-.27,6.54,6.54,0,0,1-.54-.77,2,2,0,0,1-.24-1,1.91,1.91,0,0,1,.08-.57c.05-.16.11-.31.17-.47a5.93,5.93,0,0,1-.84.06,4.35,4.35,0,0,1-3.22-1.29A4.07,4.07,0,0,1-34-117.95a4.48,4.48,0,0,1,.42-1.85,5.08,5.08,0,0,1,1.26-1.67A6,6,0,0,1-30-122.65a9.86,9.86,0,0,1,2.34-.26h5.41Zm-2.33,16a2.39,2.39,0,0,0-.67-1.7,13.38,13.38,0,0,0-2.18-1.75,1.46,1.46,0,0,0-.29,0H-28a6.11,6.11,0,0,0-1.07.06,8.08,8.08,0,0,0-1.69.35,4.48,4.48,0,0,0-1.36.73,2.46,2.46,0,0,0-.9,2,2.75,2.75,0,0,0,1.25,2.29,5.89,5.89,0,0,0,3.37.9,4.68,4.68,0,0,0,2.88-.81A2.46,2.46,0,0,0-24.56-106.86Zm-2.09-8.43a2.33,2.33,0,0,0,.55-1,3.47,3.47,0,0,0,.1-.9,6.69,6.69,0,0,0-.83-3.12A3,3,0,0,0-29.3-122a2.58,2.58,0,0,0-1,.24,2.23,2.23,0,0,0-.82.64,2.45,2.45,0,0,0-.46.91,4.46,4.46,0,0,0-.13,1,6.61,6.61,0,0,0,.8,3,2.9,2.9,0,0,0,2.49,1.67,2.43,2.43,0,0,0,1-.21A2.73,2.73,0,0,0-26.65-115.29Z" transform="translate(95.33 122.91)"/><path class="cls-1" d="M-75.88-52.58a5.25,5.25,0,0,1-1.37,1.37l-5.21,3.63-1.08.76c-.17.12-.36.24-.58.37a3.63,3.63,0,0,1-.64.3,1.91,1.91,0,0,1-.55.09h0a2,2,0,0,1-.56-.09,3.56,3.56,0,0,1-.63-.3,6.89,6.89,0,0,1-.59-.37l-1.07-.76-5.22-3.63a5.46,5.46,0,0,1-1.3-1.29A2.61,2.61,0,0,1-95.33-54a2.25,2.25,0,0,1,.46-1.45,1.56,1.56,0,0,1,1.31-.59h16.43a1.75,1.75,0,0,1,1.27.53,1.75,1.75,0,0,1,.53,1.27A3,3,0,0,1-75.88-52.58Zm.55,6v4.43a1.72,1.72,0,0,1-.53,1.25,1.72,1.72,0,0,1-1.25.53H-93.56a1.73,1.73,0,0,1-1.25-.53,1.71,1.71,0,0,1-.52-1.25V-51a5.65,5.65,0,0,0,1.13,1q4,2.73,5.55,3.85c.41.31.76.55,1,.73a7.88,7.88,0,0,0,1.06.54,3.18,3.18,0,0,0,1.22.27h0a3.26,3.26,0,0,0,1.22-.27,8.32,8.32,0,0,0,1-.54c.27-.18.61-.42,1-.73,1.26-.93,3.12-2.21,5.56-3.85a7.64,7.64,0,0,0,1.12-1Z" transform="translate(95.33 122.91)"/><path class="cls-1" d="M23.73,15.23a4.12,4.12,0,0,0,1.08.24,3.9,3.9,0,0,0,1.19,0,2.68,2.68,0,0,1-.91.64,3.77,3.77,0,0,1-1.47.28q-1.71,5.13-7.53,6.32T6,18.9a5.18,5.18,0,0,0,3.63,1.41,5.27,5.27,0,0,0,3.79-1.61,1.31,1.31,0,0,1-1.37-.53q-.35-.62.75-1.17a2.52,2.52,0,0,1-1.63-.31,2.13,2.13,0,0,1-.83-.9,1.47,1.47,0,0,1,.54-.38,2.76,2.76,0,0,1,.82-.16,3.5,3.5,0,0,1-1.62-.79,2.24,2.24,0,0,1-.62-1.21c.22-.05.44-.09.67-.12a1.78,1.78,0,0,1,.56,0,3.67,3.67,0,0,1-1.38-1.23A2,2,0,0,1,9,10.6c1.17.44,2.16.84,3,1.21s1.52.72,2.14,1a7.52,7.52,0,0,1,1.52,1.21,17.31,17.31,0,0,1,1.27-2.76,6.16,6.16,0,0,1,1.85-2.06,1,1,0,0,1-.29.59,3.22,3.22,0,0,1,.73-.49A2.85,2.85,0,0,1,20,9.09a.81.81,0,0,1-.41.51,3.33,3.33,0,0,1-.64.3l1-.36c.49-.17.79-.17.92,0s-.1.39-.46.5l-.77.23-.47.15a3.67,3.67,0,0,1,2.64.86,4.78,4.78,0,0,1,1.6,2.46c0,.15.08.3.12.47a2.75,2.75,0,0,0,1.29.06,3.15,3.15,0,0,0,1.07-.33,2,2,0,0,1-.79.88A3.17,3.17,0,0,1,23.73,15.23Z" transform="translate(95.33 122.91)"/></svg>