<svg id="Layer_1" data-name="Layer 1" xmlns="http://www.w3.org/2000/svg" viewBox="0 0 32 32"><defs><style>.cls-1{fill:#231f20;}</style></defs><title>icons</title><path class="cls-1" d="M23.73,15.23a4.12,4.12,0,0,0,1.08.24,3.9,3.9,0,0,0,1.19,0,2.68,2.68,0,0,1-.91.64,3.77,3.77,0,0,1-1.47.28q-1.71,5.13-7.53,6.32T6,18.9a5.18,5.18,0,0,0,3.63,1.41,5.27,5.27,0,0,0,3.79-1.61,1.31,1.31,0,0,1-1.37-.53q-.35-.62.75-1.17a2.52,2.52,0,0,1-1.63-.31,2.13,2.13,0,0,1-.83-.9,1.47,1.47,0,0,1,.54-.38,2.76,2.76,0,0,1,.82-.16,3.5,3.5,0,0,1-1.62-.79,2.24,2.24,0,0,1-.62-1.21c.22-.05.44-.09.67-.12a1.78,1.78,0,0,1,.56,0,3.67,3.67,0,0,1-1.38-1.23A2,2,0,0,1,9,10.6c1.17.44,2.16.84,3,1.21s1.52.72,2.14,1a7.52,7.52,0,0,1,1.52,1.21,17.31,17.31,0,0,1,1.27-2.76,6.16,6.16,0,0,1,1.85-2.06,1,1,0,0,1-.29.59,3.22,3.22,0,0,1,.73-.49A2.85,2.85,0,0,1,20,9.09a.81.81,0,0,1-.41.51,3.33,3.33,0,0,1-.64.3l1-.36c.49-.17.79-.17.92,0s-.1.39-.46.5l-.77.23-.47.15a3.67,3.67,0,0,1,2.64.86,4.78,4.78,0,0,1,1.6,2.46c0,.15.08.3.12.47a2.75,2.75,0,0,0,1.29.06,3.15,3.15,0,0,0,1.07-.33,2,2,0,0,1-.79.88A3.17,3.17,0,0,1,23.73,15.23Z"/></svg>