<svg id="Layer_1" data-name="Layer 1" xmlns="http://www.w3.org/2000/svg" viewBox="0 0 443.71 361.9"><defs><style>.cls-1{fill:#000100;}</style></defs><title>weather</title><path class="cls-1" d="M69.72,361.9A70,70,0,0,1,54.28,223.63a47.64,47.64,0,0,1,71.22-49.48A105.2,105.2,0,0,1,210,132.25,106.26,106.26,0,0,1,314.74,222a70,70,0,0,1-4.06,139.86Zm31.41-174.44a27.65,27.65,0,0,0-27.62,27.61,27.25,27.25,0,0,0,2.94,12.38,10,10,0,0,1-8.54,14.48,50,50,0,0,0,1.87,100h240.8a50,50,0,0,0-.6-100c-1,0-2.14,0-3.51.14a10,10,0,0,1-10.67-9.34,86,86,0,0,0-159.46-38.94,10,10,0,0,1-15.64,1.87A27.38,27.38,0,0,0,101.13,187.46ZM371.29,236.8a119.91,119.91,0,0,0,70.6-47.86,10,10,0,0,0-7.38-15.72A100,100,0,0,1,360.8,16.12,10,10,0,0,0,353.42.4c-3.27-.27-6.55-.4-9.76-.4a120,120,0,0,0-120,116.63,10,10,0,0,0,20,.55,100,100,0,0,1,91.36-96.82A120.09,120.09,0,0,0,414.79,190.3a99.67,99.67,0,0,1-48.09,27,10,10,0,1,0,4.59,19.47Z"/></svg>