<svg id="Layer_1" data-name="Layer 1" xmlns="http://www.w3.org/2000/svg" viewBox="0 0 380 336.4"><defs><style>.cls-1{fill:#000100;}</style></defs><title>weather</title><path class="cls-1" d="M310.58,229.55H300l-230.28-.09A69.93,69.93,0,0,1,54.28,91.38,47.64,47.64,0,0,1,125.49,41.9,106,106,0,0,1,314.73,89.77a70,70,0,0,1-4.05,139.78Zm-10.58-20h10.54a50,50,0,0,0-.56-99.94c-1.18,0-2.44.07-3.51.15a10,10,0,0,1-10.67-9.34A86,86,0,0,0,136.34,61.49a10,10,0,0,1-15.64,1.87A27.61,27.61,0,0,0,76.44,95.2a10,10,0,0,1-8.54,14.48,49.91,49.91,0,0,0,1.82,99.78H80ZM162,333.48l25-25a10,10,0,0,0-14.14-14.15l-25,25A10,10,0,0,0,162,333.48Zm-87-57L90.82,260.7a10,10,0,0,0-14.14-14.15L60.89,262.33A10,10,0,0,0,75,276.48Zm139,0,15.79-15.78a10,10,0,0,0-14.14-14.15l-15.79,15.78A10,10,0,0,0,214,276.48Zm45,25.16,41-40.94a10,10,0,1,0-14.14-14.15l-41,40.94A10,10,0,0,0,259,301.64Zm-151,11,52-51.94a10,10,0,0,0-14.14-14.15l-52,51.94A10,10,0,0,0,108,312.64Z"/></svg>