<svg id="Layer_1" data-name="Layer 1" xmlns="http://www.w3.org/2000/svg" viewBox="0 0 436.01 415.17"><defs><style>.cls-1{fill:#000100;}</style></defs><title>weather</title><path class="cls-1" d="M399.61,249.23H81.9a10,10,0,0,1,0-20H399.61A16.73,16.73,0,0,0,416,212.62a16.06,16.06,0,1,0-32.11-.12,10,10,0,0,1-20,0c0-20.12,16.14-36.5,36-36.5S436,192.43,436,212.62A36.55,36.55,0,0,1,399.61,249.23Zm-28.86,67.29c0-25-20.5-45.29-45.69-45.29H56.9a10,10,0,1,0,0,20H325.06a25.53,25.53,0,0,1,25.69,25.29,25.14,25.14,0,1,1-50.27-.06,10,10,0,0,0-20,0,45.3,45.3,0,0,0,13,32,44.59,44.59,0,0,0,32,13.31A45.32,45.32,0,0,0,370.75,316.52Zm-109-149.73a45.4,45.4,0,0,0-45.25-45.45c-24.82,0-45,20.39-45,45.45a10,10,0,0,0,20,0c0-14.27,11-25.45,25-25.45a25.45,25.45,0,1,1-.44,50.89H107.9a10,10,0,0,0,0,20H216.06A45.62,45.62,0,0,0,261.75,166.79ZM165.92,412.25l25-25a10,10,0,1,0-14.13-14.15l-25,25a10,10,0,0,0,14.13,14.15Zm-87-57,15.79-15.78a10,10,0,1,0-14.13-14.15L64.79,341.1a10,10,0,0,0,14.13,14.15Zm139,0,15.79-15.78a10,10,0,1,0-14.13-14.15L203.79,341.1a10,10,0,0,0,14.13,14.15Zm43,38.17,19-18.94a10,10,0,0,0-14.12-14.17l-19,18.94a10,10,0,0,0,14.13,14.17Zm-149-2,52-51.94a10,10,0,0,0-14.14-14.15l-52,51.94a10,10,0,0,0,14.13,14.15ZM287,213.23c36.09-1.2,64.36-29.91,64.36-65.37a65.38,65.38,0,0,0-60.17-65.12A98.6,98.6,0,0,0,194.05,0a97.62,97.62,0,0,0-78,38.31A44.64,44.64,0,0,0,49.26,77a44.94,44.94,0,0,0,.58,7.27A65.34,65.34,0,0,0,65,213.1h8.7a10,10,0,1,0,0-20H65a45.31,45.31,0,0,1-1.7-90.57A10,10,0,0,0,71.87,88a24.39,24.39,0,0,1-2.61-11,24.61,24.61,0,0,1,42.07-17.35A10,10,0,0,0,127,57.79,78.4,78.4,0,0,1,272.27,93.3a10,10,0,0,0,10.67,9.34c.89-.06,1.9-.09,3.18-.09a45.33,45.33,0,0,1,45.24,45.31c0,24.56-19.69,44.46-44.86,45.37h-9.6a10,10,0,0,0,0,20H287Z"/></svg>