<svg id="Layer_1" data-name="Layer 1" xmlns="http://www.w3.org/2000/svg" viewBox="0 0 380 336.4"><defs><style>.cls-1{fill:#000100;}</style></defs><title>weather</title><path class="cls-1" d="M310.58,229.55H300a10,10,0,1,1,0-20h10.54a50,50,0,0,0-.56-99.94c-1.18,0-2.44.07-3.51.15a10,10,0,0,1-10.67-9.34A86,86,0,0,0,136.34,61.49a10,10,0,0,1-15.64,1.87A27.61,27.61,0,0,0,76.44,95.2a10,10,0,0,1-8.54,14.48,49.91,49.91,0,0,0,1.82,99.78H80a10,10,0,1,1,0,20H69.72A69.93,69.93,0,0,1,54.28,91.38,47.64,47.64,0,0,1,125.49,41.9,106,106,0,0,1,314.73,89.77a70,70,0,0,1-4.05,139.78ZM103.11,320.61l60-60.08A10,10,0,0,0,156,243.46H131.08l44.84-42.58a10,10,0,0,0-13.77-14.5l-63,59.83A10,10,0,0,0,106,263.46h25.89l-43,43a10,10,0,1,0,14.15,14.13ZM205,285.48l60-59.94A10,10,0,0,0,258,208.46h-25l44.94-42.88a10,10,0,0,0-13.81-14.47l-63,60.12A10,10,0,0,0,208,228.46H233.8l-42.91,42.87A10,10,0,0,0,205,285.48Zm-51,48,25-25a10,10,0,0,0-14.14-14.15l-25,25A10,10,0,0,0,154,333.48Zm-91-33L78.82,284.7a10,10,0,0,0-14.14-14.15L48.89,286.33A10,10,0,0,0,63,300.48Zm179,14,52-51.94a10,10,0,0,0-14.14-14.15l-52,51.94A10,10,0,0,0,242,314.48Z"/></svg>