<svg id="Layer_1" data-name="Layer 1" xmlns="http://www.w3.org/2000/svg" viewBox="0 0 350.37 246.86"><defs><style>.cls-1{fill:#000100;}</style></defs><title>weather</title><path class="cls-1" d="M289.37,135H36.29C16.62,135,0,118.1,0,98.05c0-20.4,16.25-37,36.23-37S72.44,77.54,72.44,97.8a10,10,0,1,1-20,0c0-9.07-7.42-16.74-16.21-16.74S20,88.84,20,98.05s7.46,17,16.29,17H289.37a10,10,0,0,1,0,20Zm61-53a10,10,0,0,0-10-10H135.51c-13.86,0-25.57-11.91-25.57-26,0-14.35,11.38-26,25.36-26s25.26,11.59,25.26,25.83a10,10,0,0,0,20,0C180.56,20.56,160.26,0,135.3,0S89.94,20.64,89.94,46s20.45,46,45.57,46H340.37A10,10,0,0,0,350.37,82ZM114.1,201.76a10,10,0,0,0-20,0,25,25,0,0,1-25.36,25.1c-14.25,0-25.41-10.94-25.41-24.91S54.53,177,68.84,177H318.37a10,10,0,0,0,0-20H68.84c-25.1,0-45.51,20.15-45.51,44.92a44.35,44.35,0,0,0,13.36,31.94,45.57,45.57,0,0,0,77.41-32.13Z"/></svg>