<svg id="Layer_1" data-name="Layer 1" xmlns="http://www.w3.org/2000/svg" viewBox="0 0 410 438.22"><defs><style>.cls-1{fill:#000100;}</style></defs><title>weather</title><path class="cls-1" d="M65,334.7A65.26,65.26,0,0,1,49.84,206a44.71,44.71,0,0,1,44-51.89,44.25,44.25,0,0,1,22.22,5.91,98.41,98.41,0,0,1,175.08,44.37,65.24,65.24,0,0,1-4.41,130.28ZM93.88,174.14a24.65,24.65,0,0,0-24.62,24.62,24.39,24.39,0,0,0,2.61,11,10,10,0,0,1-8.54,14.49A45.23,45.23,0,0,0,65,314.7H286.67a45.24,45.24,0,0,0-.55-90.47c-.93,0-1.94,0-3.18.12A10,10,0,0,1,272.27,215,78.39,78.39,0,0,0,127,179.54a10,10,0,0,1-15.64,1.86A24.45,24.45,0,0,0,93.88,174.14Zm256.23,43.38a111.93,111.93,0,0,0,58.07-42.35,10,10,0,0,0-7.38-15.72A91.27,91.27,0,0,1,333.54,16.09,10,10,0,0,0,326.17.37c-3-.25-6.07-.37-9.05-.37A111.25,111.25,0,0,0,206.18,102.84a10,10,0,0,0,19.95,1.5,91.27,91.27,0,0,1,81.74-83.88A111.32,111.32,0,0,0,381,176.38a91.61,91.61,0,0,1-36.82,22,10,10,0,0,0,3,19.55A9.87,9.87,0,0,0,350.11,217.52ZM162.23,435.29l23.05-23a10,10,0,1,0-14.13-14.14l-23.05,23a10,10,0,1,0,14.13,14.15ZM82.15,382.83l14.54-14.52a10,10,0,0,0-14.14-14.16L68,368.68a10,10,0,0,0,14.13,14.15Zm127.94,0,14.54-14.52a10,10,0,1,0-14.14-14.14L196,368.68a10,10,0,1,0,14.13,14.14ZM251.51,406l37.73-37.68a10,10,0,0,0-14.13-14.16l-37.73,37.69A10,10,0,0,0,251.51,406Zm-139,10.12,47.85-47.81a10,10,0,1,0-14.13-14.14L98.39,402a10,10,0,1,0,14.14,14.15Z"/></svg>