<svg id="Layer_1" data-name="Layer 1" xmlns="http://www.w3.org/2000/svg" viewBox="0 0 380 380"><defs><style>.cls-1{fill:#000100;}</style></defs><title>weather</title><path class="cls-1" d="M190.1,290.1a100,100,0,1,1,100-100A100.11,100.11,0,0,1,190.1,290.1Zm0-180a80,80,0,1,0,80,80A80.09,80.09,0,0,0,190.1,110.1ZM200,64V10a10,10,0,0,0-20,0V64a10,10,0,0,0,20,0Zm0,306V316a10,10,0,0,0-20,0v54a10,10,0,0,0,20,0ZM74,190a10,10,0,0,0-10-10H10a10,10,0,0,0,0,20H64A10,10,0,0,0,74,190Zm306,0a10,10,0,0,0-10-10H316a10,10,0,0,0,0,20h54A10,10,0,0,0,380,190Zm-94.39-81.47,38.74-38.74a10,10,0,0,0-14.14-14.14L271.47,94.39a10,10,0,1,0,14.14,14.14ZM69.79,324.35l38.74-38.74a10,10,0,1,0-14.14-14.14L55.65,310.21a10,10,0,1,0,14.14,14.14Zm38.74-215.82a10,10,0,0,0,0-14.14L69.79,55.65A10,10,0,1,0,55.65,69.79l38.74,38.74a10,10,0,0,0,14.14,0ZM324.35,324.35a10,10,0,0,0,0-14.14l-38.74-38.74a10,10,0,0,0-14.14,14.14l38.74,38.74a10,10,0,0,0,14.14,0Z"/></svg>