<svg id="Layer_1" data-name="Layer 1" xmlns="http://www.w3.org/2000/svg" viewBox="0 0 380.25 347.4"><defs><style>.cls-1{fill:#000100;}</style></defs><title>weather</title><path class="cls-1" d="M114.71,265.2a10,10,0,0,1-5-18.65l60.51-35.2a10,10,0,1,1,10,17.29l-60.5,35.2A10,10,0,0,1,114.71,265.2Zm69.79-6.14a10,10,0,0,0-4-13.56L119,212.11a10,10,0,1,0-9.54,17.58l61.52,33.39a10,10,0,0,0,13.56-4Zm-29.56,13.25,0-69a9.88,9.88,0,0,0-10-9.87h0a10,10,0,0,0-10,10l0,68.8a10.19,10.19,0,0,0,10,10.23h0A10.14,10.14,0,0,0,154.94,272.31Zm59.79-42.47,60.5-35.2a10,10,0,1,0-10.05-17.29l-60.51,35.2a10,10,0,1,0,10.06,17.29Zm64.77-4.78a10,10,0,0,0-4-13.56L214,178.11a10,10,0,1,0-9.54,17.58l61.52,33.39a10,10,0,0,0,13.56-4Zm-29.56,13.25,0-69a9.88,9.88,0,0,0-10-9.87h0a10,10,0,0,0-10,10l0,68.8a10.19,10.19,0,0,0,10,10.23h0A10.14,10.14,0,0,0,249.94,238.31ZM135,344.48l25-25a10,10,0,0,0-14.14-14.15l-25,25A10,10,0,0,0,135,344.48Zm-49-33,15.8-15.78a10,10,0,0,0-14.14-14.15L71.89,297.33A10,10,0,0,0,86,311.48Zm115-15,15.8-15.78a10,10,0,0,0-14.14-14.15l-15.79,15.78A10,10,0,0,0,201,296.48Zm41,18,52-51.94a10,10,0,0,0-14.14-14.15l-52,51.94A10,10,0,0,0,242,314.48Zm69.16-84.93a69.76,69.76,0,0,0,69.07-70,70.16,70.16,0,0,0-65.46-69.84A106.08,106.08,0,0,0,125.51,41.9,47.67,47.67,0,0,0,54.28,91.38,69.93,69.93,0,0,0,69.72,229.46H82a10,10,0,1,0,0-20H69.72a49.91,49.91,0,0,1-1.81-99.78A10,10,0,0,0,76.45,95.2a27.23,27.23,0,0,1-2.93-12.37,27.61,27.61,0,0,1,47.2-19.47,10,10,0,0,0,15.64-1.87,86.06,86.06,0,0,1,159.5,38.93,10,10,0,0,0,10.67,9.34c.93-.07,2.32-.15,3.58-.15a50.06,50.06,0,0,1,35.76,85.18A49.34,49.34,0,0,1,311,209.55H301a10,10,0,0,0,0,20h10.19Z"/></svg>