<svg id="Layer_1" data-name="Layer 1" xmlns="http://www.w3.org/2000/svg" viewBox="0 0 350.05 300.22"><defs><style>.cls-1{fill:#000100;}</style></defs><title>weather</title><path class="cls-1" d="M313.71,134.28H61a10,10,0,0,1,0-20H313.71a16.7,16.7,0,0,0,16.34-16.61,16.15,16.15,0,1,0-32.3-.12,10,10,0,1,1-20,0,36.15,36.15,0,1,1,36,36.73ZM260.1,45.64A45.52,45.52,0,0,0,214.79,0c-24.9,0-45.16,20.45-45.16,45.58a10,10,0,0,0,20,0,25.24,25.24,0,1,1,24.86,25.7H10a10,10,0,0,0,0,20H214.49A45.67,45.67,0,0,0,260.1,45.64Zm84.62,155.93a45.48,45.48,0,0,0-45.56-45.29H30a10,10,0,0,0,0,20H299.16a25.29,25.29,0,1,1-25.07,25.23,10,10,0,0,0-20,0,45.32,45.32,0,1,0,90.63.06ZM140,297.3l25-25a10,10,0,0,0-14.14-14.15l-25,25A10,10,0,0,0,140,297.3Zm-87-57,15.79-15.78a10,10,0,0,0-14.14-14.15L38.89,226.15A10,10,0,0,0,53,240.3Zm139,0,15.79-15.78a10,10,0,0,0-14.14-14.15l-15.79,15.78A10,10,0,0,0,192,240.3Zm43,38.17,19-18.94a10,10,0,0,0-14.12-14.16l-19,18.94A10,10,0,1,0,235,278.47Zm-149-2,52-51.94a10,10,0,0,0-14.14-14.15l-52,51.94A10,10,0,1,0,86,276.46Z"/></svg>