<svg id="Layer_1" data-name="Layer 1" xmlns="http://www.w3.org/2000/svg" viewBox="0 0 414.75 471.92"><defs><style>.cls-1{fill:#000100;}</style></defs><title>weather</title><path class="cls-1" d="M301,232.6a9.5,9.5,0,0,1-6.54-16.39A72,72,0,1,0,174,151a9.5,9.5,0,1,1-18.7-3.37A91,91,0,1,1,307.56,230,9.49,9.49,0,0,1,301,232.6ZM218.79,64.7a9.49,9.49,0,0,0,7.26-11.3L216,7.48a9.5,9.5,0,1,0-18.56,4l10,45.92a9.49,9.49,0,0,0,11.3,7.25Zm139.64,88.78,48.85-10.66a9.5,9.5,0,0,0-4-18.56l-48.85,10.66a9.5,9.5,0,1,0,4.05,18.56Zm-45.16-76.9,26.81-41.76a9.5,9.5,0,0,0-16-10.27L297.28,66.32a9.5,9.5,0,1,0,16,10.26Zm-156.75,34.2a9.49,9.49,0,0,0-2.86-13.12L111.89,70.85a9.5,9.5,0,1,0-10.26,16l41.77,26.81a9.5,9.5,0,0,0,13.12-2.87ZM388.26,260.35a9.49,9.49,0,0,0-2.87-13.12l-41.76-26.81a9.5,9.5,0,0,0-10.27,16l41.77,26.81a9.51,9.51,0,0,0,13.13-2.87ZM281.92,372.65A63.87,63.87,0,0,0,286,245.09a96.53,96.53,0,0,0-172-43.55,43.6,43.6,0,0,0-64.91,45.07A63.89,63.89,0,0,0,63.6,372.66ZM109.48,221.87a9.5,9.5,0,0,0,14.86-1.78A77.51,77.51,0,0,1,268,255.17,9.48,9.48,0,0,0,278.12,264c1.23-.08,2.23-.12,3.16-.12a44.87,44.87,0,0,1,.54,89.73H63.67A44.87,44.87,0,0,1,62,264a9.5,9.5,0,0,0,8.11-13.76,24.32,24.32,0,0,1-2.61-11,24.57,24.57,0,0,1,42-17.32Zm44.18,247.27,22.69-22.67A9.5,9.5,0,0,0,162.92,433L140.23,455.7a9.5,9.5,0,1,0,13.43,13.44ZM74.84,417.5l14.31-14.29a9.5,9.5,0,0,0-13.43-13.45l-14.31,14.3A9.5,9.5,0,1,0,74.84,417.5Zm125.93,0,14.31-14.29a9.5,9.5,0,0,0-13.43-13.45l-14.31,14.3a9.5,9.5,0,1,0,13.43,13.44Zm40.77,22.8,37.14-37.09a9.5,9.5,0,0,0-13.43-13.45l-37.14,37.09a9.5,9.5,0,1,0,13.43,13.45Zm-136.8,10,47.1-47.05a9.5,9.5,0,1,0-13.43-13.45l-47.1,47.06a9.5,9.5,0,1,0,13.43,13.44Z"/></svg>