<svg id="Layer_1" data-name="Layer 1" xmlns="http://www.w3.org/2000/svg" viewBox="0 0 459.75 420"><defs><style>.cls-1{fill:#000100;}</style></defs><title>weather</title><path class="cls-1" d="M326.55,270a10,10,0,0,1-6.31-17.76,80,80,0,1,0-129.89-71.13,10,10,0,0,1-19.88-2.22,100,100,0,1,1,162.38,88.87A10,10,0,0,1,326.55,270ZM279.75,64V10a10,10,0,0,0-20,0V64a10,10,0,0,0,20,0Zm-126,126a10,10,0,0,0-10-10h-54a10,10,0,0,0,0,20h54A10,10,0,0,0,153.75,190Zm306,0a10,10,0,0,0-10-10h-54a10,10,0,0,0,0,20h54A10,10,0,0,0,459.75,190Zm-94.39-81.47L404.1,69.79A10,10,0,0,0,390,55.65L351.22,94.39a10,10,0,1,0,14.14,14.14Zm-177.08,0a10,10,0,0,0,0-14.14L149.54,55.65A10,10,0,1,0,135.4,69.79l38.74,38.74a10,10,0,0,0,14.14,0ZM404.1,324.35a10,10,0,0,0,0-14.14l-38.74-38.74a10,10,0,0,0-14.14,14.14L390,324.35a10,10,0,0,0,14.14,0ZM310.68,420a70,70,0,0,0,4.06-139.85A106.26,106.26,0,0,0,210,190.35a105.2,105.2,0,0,0-84.46,41.9,47.64,47.64,0,0,0-71.22,49.48A70,70,0,0,0,69.72,420ZM120.7,253.7a10,10,0,0,0,15.64-1.86A86,86,0,0,1,295.8,290.78a10,10,0,0,0,10.67,9.34c1.37-.1,2.49-.14,3.51-.14a50,50,0,0,1,.6,100H69.78A50,50,0,0,1,67.9,300a10,10,0,0,0,8.54-14.48,27.37,27.37,0,0,1-2.93-12.38A27.61,27.61,0,0,1,120.7,253.7Z"/></svg>