<svg id="Layer_1" data-name="Layer 1" xmlns="http://www.w3.org/2000/svg" viewBox="0 0 380 383.46"><defs><style>.cls-1{fill:#000100;}</style></defs><title>weather</title><path class="cls-1" d="M310.58,229.55H300l-230.28-.09A69.93,69.93,0,0,1,54.28,91.38,47.64,47.64,0,0,1,125.49,41.9,106,106,0,0,1,314.73,89.77a70,70,0,0,1-4.05,139.78Zm-10.58-20h10.53a50,50,0,0,0-.55-99.94c-1.18,0-2.44.07-3.51.15a10,10,0,0,1-10.67-9.34A86,86,0,0,0,136.34,61.49a10,10,0,0,1-15.64,1.87A27.61,27.61,0,0,0,76.44,95.2a10,10,0,0,1-8.54,14.48,49.91,49.91,0,0,0,1.82,99.78H80Zm-198.93,152L163,299.75a10,10,0,1,0-14.13-14.15l-61.9,61.84a10,10,0,1,0,14.13,14.15Zm61.87,0a10,10,0,0,0,0-14.14l-61.84-61.9A10,10,0,1,0,87,299.71l61.84,61.9a10,10,0,0,0,14.14,0Zm22-38.1a10,10,0,0,0-10-9.95l-100-.11h0a10,10,0,0,0,0,20l100,0h0A10,10,0,0,0,185,323.52Zm-50,50,0-100a10.06,10.06,0,0,0-10-10.07h0a10,10,0,0,0-10,10l0,100a9.94,9.94,0,0,0,10,9.94h0A10,10,0,0,0,134.93,373.5Zm102.8-54.66,60.51-35.2a10,10,0,0,0-10.06-17.29l-60.51,35.2a10,10,0,1,0,10.06,17.29Zm64.77-4.78a10,10,0,0,0-4-13.56L237,267.11a10,10,0,1,0-9.54,17.58L289,318.08a10,10,0,0,0,13.55-4Zm-29.56,13.25,0-69a9.88,9.88,0,0,0-10-9.87h0a10,10,0,0,0-10,10l0,68.8a10.19,10.19,0,0,0,10,10.23h0A10.14,10.14,0,0,0,272.94,327.31Z"/></svg>